<?xml version="1.0" standalone="no"?>
<!DOCTYPE svg PUBLIC "-//W3C//DTD SVG 20010904//EN"
 "http://www.w3.org/TR/2001/REC-SVG-20010904/DTD/svg10.dtd">
<svg version="1.0" xmlns="http://www.w3.org/2000/svg"
 width="785.000000pt" height="201.000000pt" viewBox="0 0 785.000000 201.000000"
 preserveAspectRatio="xMidYMid meet">

<g transform="translate(0.000000,201.000000) scale(0.100000,-0.100000)"
fill="#ffffff" stroke="none">
<path d="M4595 1938 c-11 -6 -47 -14 -80 -17 l-60 -6 5 -95 c3 -52 5 -255 5
-450 0 -354 0 -355 -23 -393 l-24 -37 29 0 c15 0 46 5 67 11 34 10 48 7 108
-16 71 -28 92 -27 70 3 -7 9 -21 35 -32 57 -23 48 -28 213 -20 665 5 306 5
307 -45 278z"/>
<path d="M5285 1935 c-16 -8 -56 -17 -89 -21 l-58 -7 6 -51 c3 -28 9 -106 13
-173 7 -144 8 -142 -91 -122 l-64 12 -93 -43 c-52 -24 -100 -51 -106 -59 -10
-11 -13 -74 -13 -237 l0 -222 72 -42 71 -41 111 45 111 45 41 -42 41 -43 64
63 64 62 -20 33 c-19 32 -20 51 -20 446 0 226 -2 412 -5 411 -3 0 -18 -7 -35
-14z m-137 -512 c8 -12 12 -60 12 -154 l0 -138 -55 -20 c-68 -25 -130 -28
-139 -5 -10 27 -7 264 5 285 20 38 70 61 119 54 25 -3 51 -13 58 -22z"/>
<path d="M6811 1861 c-55 -95 -59 -112 -36 -131 22 -18 47 -4 128 70 75 69 75
67 3 118 l-44 32 -51 -89z"/>
<path d="M1399 1935 c-3 -3 -33 -9 -65 -13 l-59 -7 5 -45 c3 -25 5 -225 5
-446 0 -334 -2 -404 -14 -418 -23 -28 2 -36 113 -36 98 0 98 0 91 23 -4 12
-10 97 -12 188 l-5 165 61 28 c71 32 92 31 102 -4 3 -14 4 -122 1 -241 -3
-119 -2 -224 1 -233 6 -14 18 -9 82 34 l75 51 0 152 c0 84 3 195 6 247 l6 95
-79 50 -80 50 -78 -67 c-43 -38 -82 -68 -86 -68 -5 0 -10 111 -11 248 l-3 247
-25 3 c-14 2 -28 0 -31 -3z"/>
<path d="M1971 1864 c-23 -26 -41 -53 -41 -60 0 -18 87 -87 103 -81 8 3 36 31
62 62 39 45 46 59 35 65 -8 5 -30 20 -49 34 -19 14 -43 26 -52 26 -10 0 -36
-21 -58 -46z"/>
<path d="M3083 1903 c-18 -2 -33 -7 -33 -10 0 -3 21 -28 46 -56 l47 -49 -6
-118 c-4 -80 -13 -137 -27 -180 -21 -62 -21 -65 -4 -127 22 -82 15 -231 -15
-320 -12 -34 -21 -64 -21 -66 0 -2 53 -7 118 -10 64 -3 153 -13 197 -22 109
-21 135 -19 189 11 26 15 66 32 89 39 24 7 42 18 42 26 0 8 -4 75 -9 149 l-8
135 -44 -50 c-24 -28 -58 -77 -75 -110 -18 -33 -37 -63 -43 -67 -16 -11 -108
-9 -167 3 l-52 11 7 307 c3 168 9 323 12 344 l6 37 98 0 c109 0 130 -5 130
-29 0 -39 66 -151 89 -151 10 0 55 289 47 298 -8 7 -559 12 -613 5z"/>
<path d="M219 1893 c-33 -5 -63 -37 -56 -58 4 -10 19 -15 45 -15 21 0 47 -6
58 -14 18 -14 19 -27 16 -283 -2 -147 1 -338 7 -423 l9 -155 -38 -50 c-39 -50
-108 -121 -165 -169 -25 -21 -28 -28 -19 -43 22 -34 64 -16 230 94 89 59 170
113 179 118 15 9 15 16 4 58 -8 34 -10 92 -4 200 10 214 10 234 -4 311 -8 43
-12 124 -9 210 3 124 6 146 26 179 12 21 22 40 22 43 0 5 -264 3 -301 -3z"/>
<path d="M2050 1573 c-14 -2 -49 -11 -79 -19 -49 -14 -52 -16 -35 -29 17 -12
19 -35 24 -272 4 -178 10 -265 18 -280 14 -26 52 -30 115 -12 l38 10 -5 62
c-4 34 -11 154 -16 267 -11 215 -17 281 -28 279 -4 -1 -18 -4 -32 -6z"/>
<path d="M2375 1573 c-11 -2 -41 -11 -66 -19 l-47 -15 15 -30 c12 -25 14 -69
10 -262 -2 -128 -8 -242 -12 -254 l-7 -23 128 0 c127 1 129 1 107 19 -33 28
-43 63 -43 154 0 102 12 145 54 199 34 45 43 48 131 37 28 -4 31 -1 49 52 18
52 18 59 4 80 -9 14 -40 33 -76 46 l-62 22 -33 -72 c-19 -40 -44 -81 -56 -92
l-23 -20 6 55 c10 97 -16 138 -79 123z"/>
<path d="M5625 1567 c-16 -5 -57 -27 -91 -49 l-61 -38 -6 -207 c-3 -115 -8
-216 -12 -225 -8 -20 -5 -22 144 -68 l103 -33 57 18 c31 9 80 26 109 37 l54
20 -7 72 c-4 39 -10 74 -14 78 -10 11 -81 -50 -92 -79 -9 -24 -13 -25 -56 -18
-26 4 -63 12 -82 18 -34 11 -36 15 -39 59 -6 88 11 98 201 119 l108 13 -6 25
c-14 54 -25 138 -25 188 0 40 -4 54 -17 61 -28 14 -234 21 -268 9z m87 -102
c51 -7 56 -13 60 -78 3 -44 -8 -54 -69 -63 -68 -10 -73 -5 -73 81 0 68 2 76
18 72 9 -3 38 -8 64 -12z"/>
<path d="M6165 1573 c-11 -2 -44 -11 -73 -19 -51 -14 -52 -15 -37 -37 26 -41
30 -436 4 -527 -3 -13 16 -15 125 -18 l129 -3 -31 35 c-55 63 -56 208 -1 304
41 72 68 88 121 72 37 -11 43 -10 55 6 22 30 54 127 46 135 -5 5 -41 20 -80
33 l-71 24 -48 -94 c-27 -51 -52 -94 -56 -94 -5 0 -8 33 -8 73 0 117 -6 126
-75 110z"/>
<path d="M6746 1549 c-17 -17 -62 -52 -100 -78 l-71 -47 5 -59 c8 -94 6 -265
-4 -317 l-8 -48 28 0 c16 0 70 -10 119 -21 50 -12 101 -23 115 -26 19 -3 50
10 110 46 47 28 102 56 123 62 l37 10 -2 231 -3 231 -73 4 c-40 2 -107 13
-149 24 -42 10 -81 19 -87 19 -6 0 -24 -14 -40 -31z m127 -121 l67 -12 0 -174
0 -175 -52 7 c-94 11 -127 24 -135 54 -10 35 -10 281 0 306 5 13 13 17 30 12
12 -3 52 -12 90 -18z"/>
<path d="M7290 1561 c-60 -16 -65 -19 -60 -41 3 -14 5 -128 5 -255 0 -126 -2
-243 -5 -260 l-5 -30 104 -3 103 -3 -6 28 c-4 15 -10 101 -13 190 l-6 161 61
31 c78 39 109 40 118 4 8 -31 -3 -361 -15 -446 -9 -68 -11 -68 87 3 55 40 71
58 76 83 3 18 8 129 12 248 l7 215 -73 47 c-41 26 -77 47 -81 47 -4 0 -41 -27
-82 -60 -41 -33 -82 -60 -90 -60 -10 0 -16 16 -20 50 -10 80 -10 80 -117 51z"/>
<path d="M850 1539 c-36 -10 -86 -18 -112 -18 -26 -1 -50 -6 -53 -11 -9 -15
35 -89 58 -96 30 -9 82 -7 137 6 66 16 80 10 80 -37 0 -77 -21 -88 -200 -107
l-105 -11 -3 -105 c-2 -58 0 -119 3 -137 5 -29 10 -33 62 -43 30 -7 80 -21
111 -31 30 -10 56 -19 57 -19 1 0 16 20 35 45 19 25 37 45 40 45 3 0 22 -20
40 -45 l34 -45 54 52 c67 67 78 84 60 105 -9 12 -14 69 -18 205 l-5 189 -58
24 c-32 13 -67 31 -76 39 -22 20 -57 18 -141 -5z m104 -325 c3 -9 6 -45 6 -80
l0 -64 -47 0 c-66 0 -75 9 -81 74 -4 56 -4 56 29 71 45 19 85 19 93 -1z"/>
<path d="M4020 1539 c-36 -10 -79 -19 -96 -19 -16 0 -38 -6 -48 -13 -17 -12
-17 -16 -3 -43 29 -56 69 -63 230 -38 l37 6 0 -51 c0 -41 -4 -53 -23 -65 -22
-15 -162 -43 -242 -48 -31 -2 -40 -7 -39 -20 1 -10 2 -71 3 -136 l1 -118 93
-22 c51 -12 102 -22 113 -22 10 0 36 17 57 37 l39 36 38 -44 39 -44 62 62 62
61 -18 44 c-22 54 -33 201 -22 291 10 78 6 97 -23 97 -25 0 -92 33 -109 54
-18 21 -70 19 -151 -5z m118 -391 l3 -78 -66 0 -65 0 0 58 c0 81 20 103 90 99
l35 -2 3 -77z"/>
<path d="M312 462 c-16 -11 -27 -242 -15 -327 6 -47 12 -61 27 -63 10 -2 22 2
27 10 12 19 11 345 -1 369 -12 21 -18 23 -38 11z"/>
<path d="M572 458 c-8 -8 -12 -47 -12 -112 l0 -101 -50 103 c-48 101 -73 129
-91 101 -10 -16 -12 -321 -3 -356 4 -16 14 -23 30 -23 24 0 31 22 37 129 l2
44 39 -71 c42 -76 69 -108 84 -98 14 9 25 238 15 321 -8 71 -23 91 -51 63z"/>
<path d="M734 449 c-24 -11 -44 -29 -48 -42 -3 -12 -6 -80 -6 -150 l0 -129 31
-29 c37 -34 71 -37 116 -9 45 27 65 70 61 133 l-3 52 -52 3 -53 3 0 -30 c0
-25 4 -31 21 -31 17 0 20 -5 17 -31 -4 -38 -31 -60 -50 -41 -15 15 -23 134
-14 196 9 58 32 68 66 26 28 -34 70 -41 70 -12 0 25 -33 71 -66 93 -36 24 -40
24 -90 -2z"/>
<path d="M930 270 l0 -201 88 3 c85 3 87 3 87 28 0 22 -5 26 -48 31 -48 5 -67
19 -67 51 0 36 12 48 49 48 85 0 94 60 11 70 -52 6 -69 27 -54 67 7 21 17 29
39 31 63 6 76 12 73 34 -4 27 -31 36 -115 37 l-63 1 0 -200z"/>
<path d="M1187 449 c-8 -31 -9 -342 -1 -363 3 -9 17 -16 30 -16 23 0 23 3 26
92 l3 93 49 -93 c40 -77 52 -93 70 -90 20 3 21 10 24 108 3 111 -14 266 -30
276 -19 12 -27 -12 -35 -110 l-8 -99 -34 83 c-18 45 -46 96 -61 113 l-27 30
-6 -24z"/>
<path d="M1442 453 c-11 -28 -6 -363 6 -375 6 -6 18 -8 26 -5 14 6 16 32 16
190 0 129 -4 187 -12 195 -17 17 -27 15 -36 -5z"/>
<path d="M1560 270 l0 -201 88 3 c85 3 87 3 87 28 0 14 -6 26 -15 27 -92 12
-90 11 -90 58 0 44 1 45 33 45 60 0 78 10 75 39 -2 21 -9 27 -33 29 -73 6 -76
9 -73 55 3 39 5 42 33 45 62 5 75 12 75 36 0 28 -28 36 -121 36 l-59 0 0 -200z"/>
<path d="M1797 285 c-3 -102 -4 -192 -1 -200 8 -20 50 -19 58 1 3 9 6 37 6 64
0 66 7 80 40 80 36 0 51 -19 57 -72 8 -80 12 -88 38 -88 l24 0 -2 166 -1 166
-28 23 c-34 28 -87 45 -144 45 l-41 0 -6 -185z m134 105 c27 -15 26 -66 -2
-80 -11 -7 -32 -9 -45 -6 -18 5 -24 13 -24 35 0 59 24 76 71 51z"/>
<path d="M2432 462 c-9 -6 -14 -62 -19 -200 l-6 -192 62 0 c74 0 123 19 148
56 25 39 25 249 0 288 -26 38 -149 70 -185 48z m112 -75 c25 -18 37 -103 26
-175 -12 -71 -46 -102 -78 -70 -13 13 -18 239 -5 251 10 11 38 8 57 -6z"/>
<path d="M2680 271 l0 -202 88 3 c85 3 87 3 87 28 0 22 -5 26 -48 31 -48 5
-67 19 -67 51 0 33 12 48 40 48 45 0 80 17 80 39 0 22 -19 31 -66 31 -43 0
-64 35 -46 74 9 20 20 25 53 28 26 2 46 9 53 20 18 30 -8 43 -94 47 l-80 3 0
-201z"/>
<path d="M3270 445 c-12 -32 -13 -345 -1 -363 5 -8 17 -12 27 -10 24 4 33 56
32 188 0 141 -9 204 -30 208 -12 2 -21 -6 -28 -23z"/>
<path d="M3638 463 c-50 -8 -46 -62 4 -63 9 0 20 -5 24 -11 4 -7 10 -80 13
-163 l6 -151 25 0 25 0 3 163 2 162 34 0 c62 0 73 52 14 64 -32 6 -104 6 -150
-1z"/>
<path d="M3890 461 l-25 -7 -3 -192 -2 -193 87 3 c86 3 88 3 88 28 0 23 -5 26
-51 31 -64 8 -74 14 -74 44 0 45 10 55 54 55 50 0 80 19 74 46 -2 15 -13 20
-53 22 -59 4 -75 15 -75 51 0 37 17 51 61 51 52 0 69 9 69 35 0 17 -7 24 -31
29 -38 7 -86 6 -119 -3z"/>
<path d="M4107 455 c-13 -31 -19 -195 -12 -288 7 -92 8 -97 30 -97 31 0 35 15
35 144 0 62 3 116 7 119 3 4 16 -7 28 -24 l23 -30 23 33 24 33 6 -30 c4 -17 7
-73 8 -125 1 -103 8 -124 37 -118 18 3 19 16 22 195 2 183 2 192 -17 198 -25
8 -56 -8 -77 -40 l-16 -25 -37 29 c-47 37 -77 46 -84 26z"/>
<path d="M4473 462 c-6 -4 -16 -19 -22 -34 -11 -30 -61 -304 -61 -336 0 -26
33 -30 56 -7 20 19 78 19 94 0 7 -8 22 -15 33 -15 19 0 20 4 14 73 -8 106 -47
296 -64 313 -16 16 -32 18 -50 6z m42 -227 c7 -51 2 -65 -26 -65 -21 0 -23 16
-12 95 5 41 8 46 18 31 7 -9 16 -37 20 -61z"/>
<path d="M4960 270 l0 -201 88 3 c87 3 87 3 90 31 3 25 0 27 -30 27 -67 0 -78
8 -78 56 l0 44 39 0 c55 0 71 8 71 36 0 24 -13 31 -75 36 -28 3 -30 5 -30 48
0 43 2 45 30 48 62 5 75 12 75 36 0 19 -7 24 -37 30 -21 3 -62 6 -90 6 l-53 0
0 -200z"/>
<path d="M5296 454 c-3 -9 -6 -96 -6 -195 0 -155 2 -180 16 -186 9 -3 20 0 25
8 14 22 11 363 -3 377 -16 16 -25 15 -32 -4z"/>
<path d="M5572 453 c-7 -12 -12 -50 -12 -85 0 -113 -8 -119 -45 -36 -51 119
-83 154 -99 112 -3 -9 -6 -89 -6 -179 0 -90 3 -170 6 -179 7 -19 54 -22 55 -3
1 6 0 47 -1 91 -2 91 8 94 45 10 53 -121 97 -149 109 -70 9 56 -11 289 -28
330 -12 30 -13 31 -24 9z"/>
<path d="M5676 418 c-8 -68 -8 -311 0 -332 3 -9 14 -16 24 -16 20 0 30 36 30
111 l0 49 39 0 c60 0 93 16 89 43 -2 18 -10 22 -43 25 -82 5 -86 8 -83 55 3
41 4 42 43 45 72 4 87 11 83 34 -4 27 -31 36 -114 37 l-61 1 -7 -52z"/>
<path d="M6160 275 c0 -170 2 -196 16 -202 23 -9 34 15 34 74 0 69 7 83 40 83
35 0 48 -16 55 -70 12 -85 14 -90 40 -90 l24 0 -3 167 c-2 93 -6 176 -10 185
-10 22 -88 48 -148 48 l-48 0 0 -195z m121 115 c27 -15 26 -66 -2 -80 -11 -7
-32 -9 -45 -6 -18 5 -24 13 -24 35 0 59 24 76 71 51z"/>
<path d="M6443 463 c-10 -3 -13 -50 -13 -183 0 -98 3 -185 6 -194 8 -21 40
-21 48 0 3 9 6 55 6 104 0 48 3 102 6 119 l7 32 29 -27 28 -28 16 22 c8 12 19
22 25 22 5 0 9 -49 9 -114 0 -131 4 -146 35 -146 20 0 23 6 28 68 8 81 7 197
-1 272 -9 69 -28 76 -79 25 l-36 -36 -31 29 c-32 31 -62 44 -83 35z"/>
<path d="M6796 454 c-9 -8 -16 -16 -16 -17 0 -1 -14 -74 -30 -162 -37 -198
-37 -205 -6 -205 13 0 29 7 36 15 16 19 60 19 86 0 22 -17 50 -19 59 -5 7 11
-40 305 -55 346 -18 45 -46 56 -74 28z m47 -226 c2 -48 0 -53 -21 -56 -22 -3
-22 -1 -16 55 3 32 8 65 11 73 8 27 23 -15 26 -72z"/>
<path d="M6957 463 c-24 -4 -28 -9 -25 -31 3 -23 8 -27 41 -30 l37 -3 0 -149
c0 -82 3 -155 6 -164 9 -22 54 -21 55 2 1 9 4 82 8 162 6 143 6 144 31 150 17
4 26 14 28 32 3 22 -1 26 -35 31 -40 7 -99 7 -146 0z"/>
<path d="M7192 458 c-14 -14 -17 -355 -3 -376 5 -8 17 -12 27 -10 18 3 19 16
22 187 2 127 -1 188 -9 197 -14 17 -22 17 -37 2z"/>
<path d="M7363 450 c-57 -35 -68 -62 -67 -175 0 -111 15 -167 47 -190 58 -41
157 6 160 75 2 29 -2 36 -21 38 -16 3 -27 -5 -40 -27 -21 -37 -57 -42 -66 -8
-10 37 -7 197 4 218 16 29 36 23 59 -17 23 -38 46 -42 65 -11 15 23 -8 64 -53
94 -41 28 -47 28 -88 3z"/>
<path d="M7612 462 c-12 -8 -82 -323 -82 -369 0 -18 6 -23 26 -23 14 0 32 7
40 15 20 19 58 19 78 0 8 -8 26 -15 40 -15 32 0 32 5 6 164 -23 138 -39 205
-53 224 -11 14 -36 16 -55 4z m42 -217 c7 -55 -3 -81 -28 -72 -16 6 -15 50 0
127 8 34 20 10 28 -55z"/>
<path d="M2106 425 c-41 -41 -51 -88 -44 -203 5 -73 7 -77 46 -114 52 -48 91
-51 132 -10 33 34 46 114 35 228 -6 62 -11 79 -35 104 -40 43 -88 42 -134 -5z
m94 -44 c5 -11 10 -61 10 -111 0 -97 -10 -130 -38 -130 -35 0 -42 21 -42 130
0 69 4 110 12 118 18 18 46 14 58 -7z"/>
<path d="M3038 437 c-68 -57 -59 -104 38 -193 54 -49 65 -64 60 -81 -12 -37
-35 -35 -71 5 -29 31 -38 35 -52 26 -31 -20 -26 -44 17 -85 54 -52 94 -53 146
-4 33 32 36 38 31 75 -6 50 -17 63 -84 106 -60 38 -70 53 -53 84 16 29 50 22
70 -15 18 -33 48 -44 61 -23 16 25 9 58 -22 93 -26 29 -38 35 -73 35 -28 0
-49 -7 -68 -23z"/>
<path d="M3412 435 c-16 -13 -35 -38 -42 -54 -17 -42 8 -90 75 -141 59 -45 71
-65 54 -86 -19 -23 -46 -16 -69 17 -15 20 -29 29 -43 27 -37 -5 -31 -36 16
-83 51 -52 77 -56 128 -22 27 18 35 30 37 61 5 64 -5 83 -65 123 -67 45 -82
66 -67 91 6 9 21 18 33 20 17 3 25 -5 36 -32 16 -39 43 -47 65 -21 10 12 10
24 1 55 -20 69 -103 92 -159 45z"/>
<path d="M4661 435 c-42 -36 -57 -85 -37 -124 16 -30 74 -81 93 -81 5 0 18 -9
28 -20 15 -17 16 -24 7 -45 -15 -31 -58 -35 -67 -5 -12 39 -75 52 -75 15 0 -8
19 -36 41 -60 33 -36 48 -45 74 -45 43 0 82 32 96 79 15 50 -5 89 -66 131 -70
48 -92 110 -39 110 19 0 29 -8 40 -35 26 -64 86 -37 64 29 -24 74 -102 99
-159 51z"/>
<path d="M5921 425 l-31 -36 0 -126 0 -126 36 -33 c49 -46 83 -45 136 4 39 37
41 41 46 114 7 113 -3 161 -42 203 -27 29 -41 35 -74 35 -33 0 -45 -6 -71 -35z
m100 -42 c21 -25 19 -217 -2 -238 -14 -15 -18 -14 -40 4 -23 18 -24 25 -24
121 0 89 2 103 19 116 25 18 31 18 47 -3z"/>
</g>
</svg>
