<?xml version="1.0" standalone="no"?>
<!DOCTYPE svg PUBLIC "-//W3C//DTD SVG 20010904//EN"
 "http://www.w3.org/TR/2001/REC-SVG-20010904/DTD/svg10.dtd">
<svg version="1.0" xmlns="http://www.w3.org/2000/svg"
 width="489.000000pt" height="349.000000pt" viewBox="0 0 489.000000 349.000000"
 preserveAspectRatio="xMidYMid meet">

<g transform="translate(0.000000,349.000000) scale(0.100000,-0.100000)"
fill="#ffffff" stroke="none">
<path d="M1726 3370 c-39 -25 -76 -87 -76 -127 0 -39 6 -40 51 -10 53 35 105
157 67 157 -7 0 -26 -9 -42 -20z"/>
<path d="M3220 3367 c0 -38 43 -110 79 -134 44 -30 51 -29 51 5 -1 45 -35 107
-72 130 -45 28 -58 28 -58 -1z"/>
<path d="M1521 3341 c-27 -50 2 -166 48 -190 26 -14 31 -5 31 56 0 54 -24 117
-54 142 -12 10 -17 9 -25 -8z"/>
<path d="M3448 3343 c-33 -37 -48 -83 -48 -143 0 -64 1 -66 31 -50 47 26 77
151 46 194 -12 16 -13 16 -29 -1z"/>
<path d="M2460 3308 c-243 -150 -598 -274 -711 -249 -51 12 -101 -2 -141 -38
-34 -30 -31 -51 8 -51 36 0 32 -34 -6 -50 -31 -13 -70 -58 -70 -80 0 -13 56
-9 95 6 13 5 16 2 13 -17 -2 -16 -12 -25 -34 -31 -35 -9 -89 -59 -97 -89 -7
-26 36 -26 88 1 50 25 55 25 55 -3 0 -19 -8 -26 -39 -36 -22 -6 -54 -25 -70
-42 -30 -29 -49 -74 -38 -85 12 -13 82 21 117 56 l37 37 22 -101 c100 -446
347 -829 708 -1100 49 -36 95 -66 103 -66 27 0 193 133 306 245 248 247 405
527 493 874 32 128 39 147 49 130 15 -24 79 -66 115 -74 22 -6 27 -4 27 12 0
38 -48 92 -100 110 -40 14 -50 22 -50 40 0 28 5 28 55 3 22 -11 52 -20 67 -20
27 0 28 2 17 23 -20 38 -61 76 -96 88 -23 7 -33 17 -33 30 0 15 5 19 18 15 49
-14 92 -18 92 -7 0 24 -34 63 -71 82 -45 22 -44 49 2 49 38 0 38 21 -1 54 -41
34 -89 46 -139 35 -110 -25 -479 103 -702 242 -25 16 -48 29 -50 29 -2 0 -20
-10 -39 -22z m100 -53 c202 -122 453 -209 723 -250 l38 -6 -2 -92 c-11 -524
-236 -1009 -629 -1355 -52 -46 -116 -97 -142 -114 l-48 -30 -48 30 c-73 48
-228 188 -314 286 -286 324 -458 774 -458 1200 l0 75 48 6 c91 13 276 57 361
87 99 34 283 120 356 166 28 17 52 32 54 32 2 0 29 -16 61 -35z"/>
<path d="M2425 2761 c-158 -39 -281 -183 -234 -274 15 -28 28 -37 56 -37 19 0
21 4 16 39 -6 46 11 104 44 149 25 33 83 70 83 52 0 -15 -128 -578 -146 -640
-20 -69 -38 -90 -79 -90 -64 0 -88 70 -38 110 26 20 37 21 76 5 26 -11 24 51
-2 65 -25 13 -97 13 -122 0 -28 -16 -49 -63 -49 -115 0 -38 5 -52 28 -75 49
-49 147 -52 227 -7 75 42 88 78 170 458 41 189 75 350 75 357 0 13 -55 15
-105 3z"/>
<path d="M2770 2761 c-147 -45 -250 -236 -250 -460 0 -105 21 -158 74 -190
103 -64 288 -16 355 93 28 45 19 63 -14 30 -37 -37 -103 -64 -158 -64 -40 0
-53 5 -78 29 -28 28 -29 33 -29 119 0 151 55 320 126 381 36 32 81 40 102 19
17 -17 15 -80 -4 -107 -14 -19 -14 -25 -3 -32 68 -43 126 66 73 137 -33 45
-124 66 -194 45z"/>
<path d="M1435 3177 c-4 -19 -2 -52 4 -75 12 -43 62 -102 87 -102 17 0 19 48
3 103 -10 36 -62 107 -80 107 -4 0 -11 -15 -14 -33z"/>
<path d="M3512 3175 c-48 -54 -72 -175 -36 -175 25 0 73 57 84 101 11 40 4
109 -10 109 -4 0 -22 -16 -38 -35z"/>
<path d="M1695 3171 c-22 -11 -45 -29 -52 -40 -11 -18 -9 -20 27 -26 70 -12
192 37 164 65 -21 21 -98 22 -139 1z"/>
<path d="M3191 3181 c-33 -9 -36 -25 -9 -43 42 -27 98 -40 143 -33 41 6 44 8
32 26 -15 25 -85 59 -118 58 -13 -1 -35 -4 -48 -8z"/>
<path d="M1376 3034 c-16 -43 23 -138 69 -168 36 -24 45 -20 45 19 0 43 -22
89 -63 133 -35 36 -42 39 -51 16z"/>
<path d="M3573 3018 c-41 -44 -63 -90 -63 -133 0 -45 19 -46 63 -1 33 33 59
99 52 134 -2 9 -4 20 -4 25 -2 15 -18 6 -48 -25z"/>
<path d="M1330 2857 c0 -51 40 -118 86 -144 45 -26 54 -28 54 -10 0 59 -55
143 -111 173 l-29 15 0 -34z"/>
<path d="M3635 2871 c-43 -26 -82 -75 -95 -119 -19 -70 -15 -73 44 -39 48 26
89 99 84 146 l-3 31 -30 -19z"/>
<path d="M3655 2703 c-48 -25 -83 -63 -101 -110 -19 -50 -16 -58 22 -49 40 10
100 75 113 121 13 49 5 58 -34 38z"/>
<path d="M1306 2683 c10 -40 23 -64 52 -95 25 -27 88 -55 99 -45 9 10 -18 77
-44 108 -27 32 -72 59 -98 59 -12 0 -14 -6 -9 -27z"/>
<path d="M1620 2539 c-50 -20 -100 -84 -100 -129 0 -25 2 -25 50 0 44 22 85
71 95 113 8 30 -1 33 -45 16z"/>
<path d="M3334 2524 c11 -43 52 -92 96 -114 48 -25 50 -25 50 0 0 52 -63 121
-124 136 -28 7 -29 6 -22 -22z"/>
<path d="M1300 2525 c0 -58 98 -145 163 -145 15 0 -2 52 -29 88 -40 52 -134
92 -134 57z"/>
<path d="M3628 2520 c-42 -23 -83 -72 -93 -112 -6 -24 -4 -27 15 -23 64 12
108 44 136 97 31 59 9 73 -58 38z"/>
<path d="M1626 2397 c-44 -24 -72 -64 -81 -114 -7 -41 6 -42 57 -8 35 24 78
94 78 128 0 22 -7 21 -54 -6z"/>
<path d="M3320 2397 c0 -36 52 -110 93 -132 20 -10 39 -16 42 -13 9 9 -12 79
-30 106 -14 19 -83 62 -100 62 -3 0 -5 -10 -5 -23z"/>
<path d="M1315 2349 c20 -64 92 -118 158 -119 32 0 33 5 7 47 -25 41 -86 82
-135 90 -36 6 -37 5 -30 -18z"/>
<path d="M3610 2354 c-42 -18 -77 -49 -96 -86 -19 -36 -18 -38 14 -38 64 1
137 55 156 118 6 18 4 22 -16 22 -13 -1 -39 -8 -58 -16z"/>
<path d="M1663 2270 c-53 -32 -90 -109 -74 -152 7 -21 10 -19 52 23 26 26 49
61 57 85 21 71 17 76 -35 44z"/>
<path d="M3297 2258 c7 -49 39 -103 75 -132 31 -24 33 -24 40 -6 15 41 -23
119 -75 150 -43 26 -46 25 -40 -12z"/>
<path d="M1344 2198 c-9 -15 48 -81 87 -100 41 -22 109 -24 109 -4 0 16 -37
57 -71 80 -32 20 -117 37 -125 24z"/>
<path d="M3587 2196 c-60 -16 -126 -71 -127 -105 0 -20 95 -9 128 16 33 24 74
82 66 94 -6 11 -7 11 -67 -5z"/>
<path d="M1698 2137 c-35 -29 -58 -78 -58 -121 0 -64 31 -57 76 19 25 44 37
115 19 121 -5 2 -22 -6 -37 -19z"/>
<path d="M3254 2118 c12 -71 77 -164 100 -141 12 12 6 75 -10 109 -17 35 -61
74 -84 74 -9 0 -11 -12 -6 -42z"/>
<path d="M1399 2023 c17 -32 65 -70 104 -83 39 -12 107 -6 107 10 0 13 -61 61
-97 77 -18 7 -53 13 -78 13 -40 0 -45 -2 -36 -17z"/>
<path d="M1758 2023 c-42 -48 -58 -118 -39 -167 7 -18 8 -18 30 5 33 34 51 81
51 134 0 49 -15 59 -42 28z"/>
<path d="M3199 2018 c-3 -66 14 -117 52 -157 22 -23 23 -23 30 -5 21 53 -7
151 -50 174 -28 14 -31 13 -32 -12z"/>
<path d="M3485 2026 c-35 -15 -95 -64 -95 -76 0 -16 68 -22 105 -10 39 13 90
52 106 81 9 17 6 19 -38 19 -26 -1 -61 -7 -78 -14z"/>
<path d="M1832 1908 c-40 -44 -55 -126 -29 -162 12 -16 14 -16 34 6 28 30 46
99 37 143 -7 41 -13 43 -42 13z"/>
<path d="M3126 1896 c-9 -47 11 -120 40 -147 l23 -22 11 27 c20 53 7 111 -32
154 -29 30 -35 28 -42 -12z"/>
<path d="M1473 1882 c-20 -12 44 -68 95 -83 34 -10 50 -10 84 1 l43 12 -33 28
c-50 42 -153 65 -189 42z"/>
<path d="M3403 1878 c-17 -6 -47 -23 -65 -38 l-33 -28 43 -12 c33 -10 50 -11
82 -1 51 15 117 70 98 82 -17 11 -85 9 -125 -3z"/>
<path d="M1912 1801 c-11 -18 -23 -48 -26 -66 -7 -35 12 -106 30 -112 34 -11
60 152 30 192 -13 18 -15 18 -34 -14z"/>
<path d="M3051 1813 c-26 -49 -1 -201 31 -191 7 3 19 22 27 44 15 45 4 106
-28 145 l-18 23 -12 -21z"/>
<path d="M1571 1739 c-23 -9 -23 -10 -5 -30 41 -46 139 -64 182 -33 12 8 22
19 22 23 0 5 -22 18 -49 30 -52 22 -110 26 -150 10z"/>
<path d="M3295 1737 c-16 -7 -39 -18 -50 -24 -20 -13 -20 -13 4 -33 42 -36
148 -17 190 34 11 13 9 17 -14 26 -34 13 -92 12 -130 -3z"/>
<path d="M2955 1711 c-21 -41 -23 -128 -3 -165 13 -26 15 -26 30 -9 38 43 40
111 5 178 l-15 29 -17 -33z"/>
<path d="M2009 1709 c-31 -60 -28 -131 9 -172 15 -17 17 -17 30 8 17 33 18
117 2 156 -15 35 -25 37 -41 8z"/>
<path d="M1682 1609 c-13 -5 -22 -15 -20 -21 7 -22 71 -48 116 -48 44 0 102
23 102 40 0 30 -143 52 -198 29z"/>
<path d="M3153 1605 c-18 -8 -33 -19 -33 -24 0 -19 58 -41 107 -41 48 0 113
29 113 50 0 30 -130 40 -187 15z"/>
<path d="M1813 1490 c-24 -10 -43 -21 -43 -24 0 -15 69 -38 111 -38 48 0 108
25 116 48 5 16 -51 34 -101 34 -23 0 -60 -9 -83 -20z"/>
<path d="M3027 1498 c-34 -12 -31 -27 13 -52 41 -24 114 -25 158 -2 18 9 32
19 32 22 0 3 -19 14 -42 24 -46 21 -116 25 -161 8z"/>
<path d="M985 1220 c-11 -5 -35 -9 -52 -9 -31 -1 -32 -2 -23 -27 13 -34 13
-511 0 -519 -26 -16 -4 -25 62 -25 56 0 69 3 60 12 -8 8 -12 48 -12 113 l0
101 35 17 c69 33 68 35 63 -143 -3 -112 -1 -157 6 -153 6 4 28 19 48 34 l38
27 3 148 3 149 -46 30 -46 31 -24 -24 c-14 -13 -38 -33 -53 -44 l-28 -20 3
156 c3 160 2 163 -37 146z"/>
<path d="M2900 1220 c-8 -5 -32 -10 -53 -10 -35 0 -38 -2 -30 -22 4 -13 8
-136 8 -274 0 -234 -1 -253 -19 -273 -22 -24 -12 -27 43 -11 27 7 41 5 73 -11
22 -11 42 -18 45 -15 3 2 -6 19 -19 36 -23 31 -23 35 -23 278 0 136 3 262 7
280 8 34 -3 41 -32 22z"/>
<path d="M3317 1219 c-9 -5 -35 -11 -57 -12 -32 -1 -39 -4 -34 -17 4 -8 9 -57
12 -107 4 -89 3 -93 -16 -93 -11 0 -32 4 -46 9 -20 8 -35 4 -78 -19 -29 -16
-60 -30 -68 -30 -13 0 -15 -22 -13 -142 l2 -142 43 -24 43 -25 68 27 67 27 22
-25 23 -26 41 39 c38 36 40 41 25 55 -14 14 -16 47 -16 234 0 119 3 232 7 250
8 34 4 38 -25 21z m-99 -295 c21 -6 22 -11 22 -96 l0 -89 -35 -15 c-19 -7 -46
-14 -60 -14 -25 0 -25 0 -25 94 0 86 2 95 23 109 24 18 41 20 75 11z"/>
<path d="M4227 1170 c-33 -54 -34 -60 -19 -73 15 -14 22 -10 69 33 l52 48 -33
26 -34 25 -35 -59z"/>
<path d="M1326 1179 c-33 -39 -33 -43 4 -69 l30 -21 36 35 c21 20 35 38 33 39
-2 2 -17 13 -33 25 -37 28 -39 28 -70 -9z"/>
<path d="M1970 1199 c0 -3 14 -18 31 -35 30 -29 31 -30 27 -109 -2 -44 -11
-93 -19 -110 -13 -26 -13 -36 -1 -70 16 -46 11 -145 -11 -197 l-14 -33 71 -3
c38 -1 98 -9 132 -17 61 -14 64 -14 106 10 24 14 51 25 62 25 15 0 17 5 12 31
-3 17 -6 59 -6 93 l-1 61 -34 -39 c-19 -22 -40 -54 -47 -73 -13 -36 -30 -40
-110 -27 l-38 7 0 147 c0 81 3 175 6 209 l7 62 66 -3 66 -3 13 -40 c7 -22 21
-48 31 -58 18 -18 19 -16 30 65 7 45 14 90 17 99 4 14 -18 16 -196 15 -110 -1
-200 -4 -200 -7z"/>
<path d="M252 1188 c-21 -21 -14 -38 16 -38 52 0 54 -7 48 -131 -8 -146 -8
-143 0 -279 l6 -116 -41 -51 c-22 -28 -54 -60 -71 -69 -31 -19 -34 -31 -9 -47
10 -7 43 11 123 67 60 42 113 76 118 76 5 0 4 9 -2 19 -13 25 -13 162 0 219 8
31 7 49 -2 65 -7 13 -12 66 -12 133 0 89 4 117 17 138 l17 26 -98 0 c-63 0
-102 -4 -110 -12z"/>
<path d="M1335 996 c-37 -10 -46 -15 -32 -20 15 -7 17 -25 17 -165 0 -187 3
-196 68 -178 33 9 41 15 35 27 -4 8 -10 89 -13 179 -3 97 -9 165 -15 167 -5 1
-32 -4 -60 -10z"/>
<path d="M1535 995 c-37 -9 -45 -14 -32 -20 15 -6 17 -24 17 -152 0 -80 -5
-153 -10 -164 -10 -18 -7 -19 72 -19 77 0 81 1 60 16 -19 13 -22 24 -22 90 0
66 3 81 28 115 19 27 32 38 45 34 9 -3 25 -8 36 -11 14 -4 21 2 30 27 18 53
14 63 -34 80 l-45 16 -24 -53 c-24 -52 -55 -77 -41 -33 9 29 -3 89 -18 88 -7
-1 -34 -7 -62 -14z"/>
<path d="M3475 978 l-50 -32 0 -110 c0 -61 -3 -123 -7 -137 -7 -25 -5 -26 45
-38 28 -7 62 -18 75 -25 19 -10 33 -9 88 10 36 12 67 23 69 26 2 2 1 25 -3 52
l-7 48 -27 -22 c-16 -12 -28 -28 -28 -36 0 -12 -8 -14 -37 -9 -74 13 -74 13
-71 58 3 46 -6 42 139 62 l47 6 -9 37 c-5 20 -9 58 -9 85 0 46 0 47 -32 47
-18 0 -55 2 -83 5 -43 3 -57 0 -100 -27z m133 -79 c3 -34 1 -37 -29 -43 -57
-11 -59 -10 -59 42 l0 48 43 -5 c40 -6 42 -8 45 -42z"/>
<path d="M3810 995 c-40 -9 -50 -14 -37 -20 15 -6 17 -24 17 -159 0 -105 -4
-156 -12 -164 -9 -9 7 -12 72 -12 l84 0 -22 20 c-18 17 -22 32 -22 88 0 60 4
73 31 111 23 30 36 40 48 35 44 -18 49 -16 66 30 10 26 16 48 14 49 -2 1 -24
9 -49 18 l-45 15 -32 -61 -32 -60 -1 47 c0 48 -8 79 -19 77 -3 -1 -31 -7 -61
-14z"/>
<path d="M4191 986 c-13 -13 -42 -34 -65 -47 -42 -22 -43 -23 -35 -63 11 -56
11 -144 0 -182 l-9 -32 48 -6 c27 -4 65 -12 86 -19 36 -13 39 -12 88 20 27 19
62 37 76 40 l26 5 0 139 -1 139 -46 0 c-25 0 -68 7 -95 15 -27 8 -49 15 -50
15 0 0 -11 -11 -23 -24z m82 -71 l37 -7 0 -105 0 -105 -42 7 c-83 13 -78 5
-78 122 0 104 0 105 23 100 12 -3 39 -9 60 -12z"/>
<path d="M4515 996 c-31 -7 -45 -14 -37 -19 17 -11 17 -308 0 -325 -9 -9 4
-12 60 -12 69 0 72 1 62 19 -5 11 -10 63 -10 115 l0 96 41 20 c70 36 73 30 66
-128 -3 -75 -9 -148 -13 -161 -7 -23 -5 -22 40 12 26 20 51 37 56 39 5 2 10
70 11 151 l1 149 -28 19 c-16 10 -36 24 -45 31 -14 10 -25 5 -64 -30 -55 -48
-65 -51 -65 -18 0 29 -9 56 -19 55 -3 0 -28 -6 -56 -13z"/>
<path d="M660 984 c-25 -7 -60 -13 -77 -13 -37 -1 -37 -1 -21 -36 14 -32 48
-41 98 -26 55 16 60 14 60 -24 0 -43 -18 -52 -118 -61 l-67 -6 0 -84 c0 -80 1
-84 22 -84 12 0 44 -7 70 -16 l47 -16 23 28 23 29 23 -28 23 -29 41 41 c34 34
38 43 26 53 -12 9 -14 35 -11 124 l3 112 -36 11 c-20 6 -42 18 -49 26 -14 17
-19 17 -80 -1z m60 -235 l0 -50 -37 3 c-36 3 -38 5 -41 41 -3 31 1 39 20 46
50 21 58 15 58 -40z"/>
<path d="M2565 985 c-22 -8 -55 -14 -72 -14 -39 -1 -43 -21 -12 -52 22 -22 39
-22 122 -3 25 6 27 4 27 -29 0 -30 -4 -37 -31 -46 -17 -6 -59 -13 -92 -17
l-62 -6 0 -84 c-1 -83 0 -84 25 -84 14 -1 43 -7 65 -15 38 -14 41 -13 67 12
l27 26 23 -27 23 -26 41 39 c37 35 40 41 26 54 -19 20 -28 148 -14 199 10 36
9 36 -23 42 -18 4 -40 15 -50 26 -21 23 -34 23 -90 5z m65 -235 l0 -50 -40 0
-40 0 0 44 c0 38 3 45 23 49 56 11 57 10 57 -43z"/>
<path d="M320 220 c0 -113 1 -120 20 -120 19 0 20 7 20 120 0 113 -1 120 -20
120 -19 0 -20 -7 -20 -120z"/>
<path d="M390 221 c0 -114 1 -121 20 -121 18 0 20 7 20 58 l1 57 30 -57 c47
-92 59 -80 59 62 0 113 -1 120 -20 120 -18 0 -20 -7 -20 -67 l-1 -68 -28 65
c-16 37 -35 66 -44 68 -15 3 -17 -10 -17 -117z"/>
<path d="M572 324 c-20 -14 -22 -24 -22 -104 0 -80 2 -90 22 -104 32 -22 55
-20 83 9 18 18 25 35 25 65 0 39 -1 40 -35 40 -28 0 -35 -4 -35 -20 0 -12 7
-20 16 -20 10 0 14 -7 12 -22 -2 -15 -10 -23 -23 -23 -18 0 -20 7 -20 75 0 64
3 75 18 78 12 3 20 -4 24 -17 6 -23 43 -29 43 -7 0 24 -41 66 -64 66 -12 0
-32 -7 -44 -16z"/>
<path d="M700 220 l0 -120 55 0 c48 0 55 2 55 20 0 16 -7 20 -35 20 -32 0 -35
2 -35 30 0 28 3 30 35 30 28 0 35 4 35 20 0 16 -7 20 -35 20 -32 0 -35 2 -35
30 0 28 3 30 35 30 28 0 35 4 35 20 0 18 -7 20 -55 20 l-55 0 0 -120z"/>
<path d="M850 221 c0 -117 1 -121 21 -121 20 0 21 4 16 60 -3 33 -2 58 2 55 4
-2 19 -29 32 -60 16 -37 29 -55 41 -55 15 0 18 9 18 59 0 100 -12 181 -26 181
-9 0 -14 -20 -16 -67 l-3 -67 -26 64 c-15 37 -34 66 -43 68 -14 3 -16 -11 -16
-117z"/>
<path d="M1004 220 c1 -107 3 -120 19 -120 15 0 17 12 17 120 0 110 -2 120
-19 120 -17 0 -18 -9 -17 -120z"/>
<path d="M1080 220 l0 -120 55 0 c48 0 55 2 55 20 0 16 -7 20 -35 20 -32 0
-35 2 -35 30 0 28 3 30 35 30 28 0 35 4 35 20 0 16 -7 20 -35 20 -32 0 -35 2
-35 30 0 28 3 30 35 30 28 0 35 4 35 20 0 18 -7 20 -55 20 l-55 0 0 -120z"/>
<path d="M1222 220 c-4 -116 -3 -120 17 -120 18 0 21 6 21 50 0 46 2 50 24 50
27 0 36 -16 36 -66 0 -28 4 -34 21 -34 19 0 20 4 15 52 -7 69 -7 67 0 109 5
31 2 39 -21 58 -18 14 -42 21 -69 21 l-41 0 -3 -120z m93 50 c0 -20 -6 -26
-27 -28 -25 -3 -28 0 -28 28 0 28 3 31 28 28 21 -2 27 -8 27 -28z"/>
<path d="M1405 315 c-22 -21 -25 -33 -25 -95 0 -62 3 -74 25 -95 28 -29 51
-31 83 -9 20 14 22 24 22 100 0 71 -3 87 -20 104 -27 27 -56 25 -85 -5z m60
-24 c3 -5 6 -37 8 -70 2 -63 -10 -88 -37 -78 -12 5 -16 22 -16 75 0 38 3 72 7
75 9 10 31 9 38 -2z"/>
<path d="M1598 333 c-2 -5 -5 -59 -7 -120 l-3 -113 45 0 c29 0 53 7 68 19 22
17 24 27 24 101 0 74 -2 84 -24 101 -23 19 -96 27 -103 12z m80 -45 c7 -7 12
-37 12 -68 0 -58 -11 -80 -42 -80 -16 0 -18 10 -18 80 0 70 2 80 18 80 10 0
23 -5 30 -12z"/>
<path d="M1750 220 l0 -120 55 0 c48 0 55 2 55 20 0 16 -7 20 -35 20 -32 0
-35 2 -35 30 0 28 3 30 35 30 28 0 35 4 35 20 0 16 -7 20 -35 20 -32 0 -35 2
-35 30 0 28 3 30 35 30 28 0 35 4 35 20 0 18 -7 20 -55 20 l-55 0 0 -120z"/>
<path d="M1962 320 c-41 -38 -25 -80 49 -131 15 -10 20 -21 16 -32 -9 -23 -38
-21 -44 3 -7 25 -43 27 -43 2 0 -27 37 -62 65 -62 30 0 65 32 65 59 0 35 -12
52 -52 72 -30 15 -39 25 -36 42 4 30 42 30 46 0 2 -15 10 -23 23 -23 26 0 26
43 -1 70 -26 26 -60 25 -88 0z"/>
<path d="M2100 220 c0 -113 1 -120 20 -120 19 0 20 7 20 120 0 113 -1 120 -20
120 -19 0 -20 -7 -20 -120z"/>
<path d="M2185 315 c-42 -41 -30 -74 46 -126 15 -10 20 -21 16 -32 -9 -23 -38
-21 -44 3 -6 23 -43 27 -43 5 0 -22 45 -65 67 -65 10 0 29 7 41 16 18 12 22
24 20 52 -3 32 -9 40 -46 60 -33 19 -42 29 -40 46 4 29 42 29 46 -1 2 -15 10
-23 23 -23 28 0 26 54 -3 74 -32 22 -55 20 -83 -9z"/>
<path d="M2307 326 c-7 -18 1 -26 25 -26 16 0 18 -10 18 -100 0 -93 1 -100 20
-100 19 0 20 7 20 100 l0 100 25 0 c18 0 25 5 25 20 0 18 -7 20 -64 20 -46 0
-65 -4 -69 -14z"/>
<path d="M2458 318 c-2 -13 -2 -67 0 -120 l3 -98 55 0 c47 0 54 2 54 20 0 17
-7 20 -40 20 -38 0 -40 2 -40 30 0 28 2 30 40 30 33 0 40 3 40 20 0 17 -7 20
-40 20 -38 0 -40 2 -40 30 0 28 2 30 40 30 33 0 40 3 40 20 0 18 -7 20 -54 20
-49 0 -55 -2 -58 -22z"/>
<path d="M2600 220 c0 -113 1 -120 20 -120 18 0 20 7 21 88 0 83 1 86 16 64
l17 -24 18 24 c17 23 18 22 18 -64 0 -81 2 -88 20 -88 19 0 20 7 20 120 0 118
0 120 -23 120 -12 0 -28 -9 -35 -21 l-13 -21 -23 21 c-12 12 -30 21 -39 21
-15 0 -17 -14 -17 -120z"/>
<path d="M2794 220 c-20 -116 -20 -120 -2 -120 10 0 18 5 18 10 0 6 14 10 30
10 17 0 30 -4 30 -10 0 -5 8 -10 18 -10 18 0 18 5 -2 120 -20 117 -21 120 -46
120 -25 0 -26 -3 -46 -120z m59 -22 c5 -33 3 -38 -15 -38 -14 0 -18 5 -14 16
3 9 6 30 6 47 0 41 16 23 23 -25z"/>
<path d="M2935 315 c-41 -40 -26 -90 35 -115 23 -9 30 -18 28 -34 -4 -29 -38
-34 -45 -7 -6 24 -43 29 -43 6 0 -22 45 -65 67 -65 35 0 63 29 63 65 0 28 -7
38 -42 62 -46 31 -59 68 -23 68 13 0 21 -8 23 -22 2 -15 10 -23 23 -23 26 0
26 43 -1 70 -27 27 -56 25 -85 -5z"/>
<path d="M3120 220 l0 -120 55 0 c48 0 55 2 55 20 0 16 -7 20 -35 20 -32 0
-35 2 -35 30 0 28 3 30 35 30 28 0 35 4 35 20 0 16 -7 20 -35 20 -32 0 -35 2
-35 30 0 28 3 30 35 30 28 0 35 4 35 20 0 18 -7 20 -55 20 l-55 0 0 -120z"/>
<path d="M3317 228 c1 -62 2 -116 3 -120 0 -5 7 -8 15 -8 13 0 15 20 15 120 0
108 -2 120 -17 120 -16 0 -18 -11 -16 -112z"/>
<path d="M3390 221 c0 -117 1 -121 21 -121 20 0 21 4 16 55 -3 30 -2 55 3 55
4 0 18 -25 31 -55 16 -38 28 -55 41 -55 15 0 18 9 18 59 0 100 -12 181 -26
181 -9 0 -14 -20 -16 -67 l-3 -67 -26 64 c-15 37 -34 66 -43 68 -14 3 -16 -11
-16 -117z"/>
<path d="M3549 298 c-5 -189 -5 -198 13 -198 15 0 18 9 18 50 l0 50 40 0 c33
0 40 3 40 20 0 17 -7 20 -40 20 -38 0 -40 2 -40 30 0 28 2 30 40 30 33 0 40 3
40 20 0 18 -7 20 -55 20 l-55 0 -1 -42z"/>
<path d="M3700 322 c-20 -16 -23 -28 -23 -102 -1 -75 2 -85 22 -101 31 -26 57
-24 86 6 22 21 25 33 25 95 0 62 -3 74 -25 95 -29 30 -55 32 -85 7z m68 -92
c3 -75 -8 -101 -35 -84 -13 8 -19 27 -21 68 -3 61 9 89 37 84 12 -3 17 -18 19
-68z"/>
<path d="M3839 288 c-4 -172 -2 -188 16 -188 11 0 15 12 15 51 0 49 1 50 28
47 25 -3 27 -7 30 -50 3 -41 6 -48 24 -48 18 0 19 4 14 53 -7 68 -7 66 0 109
8 51 -20 78 -81 78 l-45 0 -1 -52z m86 -18 c0 -20 -6 -26 -27 -28 -25 -3 -28
0 -28 28 0 28 3 31 28 28 21 -2 27 -8 27 -28z"/>
<path d="M4000 220 c0 -113 1 -120 20 -120 18 0 20 7 20 88 1 87 1 87 20 64
l19 -22 15 22 c15 21 16 17 16 -65 0 -80 2 -87 20 -87 19 0 20 7 20 120 0 112
-1 120 -19 120 -11 0 -27 -10 -36 -22 l-16 -23 -19 23 c-10 12 -28 22 -39 22
-20 0 -21 -5 -21 -120z"/>
<path d="M4196 233 c-10 -60 -21 -114 -23 -120 -3 -8 3 -13 16 -13 12 0 21 5
21 10 0 6 11 10 24 10 14 0 28 -4 31 -10 3 -5 14 -10 23 -10 17 0 16 8 -2 120
-20 117 -21 120 -46 120 -25 0 -27 -3 -44 -107z m56 -33 c3 -34 1 -40 -15 -40
-13 0 -17 5 -13 16 3 9 6 29 6 45 0 43 17 26 22 -21z"/>
<path d="M4300 320 c0 -15 7 -20 25 -20 l25 0 0 -100 c0 -93 1 -100 20 -100
19 0 20 7 20 100 0 93 1 100 20 100 13 0 20 7 20 20 0 18 -7 20 -65 20 -58 0
-65 -2 -65 -20z"/>
<path d="M4450 220 c0 -113 1 -120 20 -120 19 0 20 7 20 120 0 113 -1 120 -20
120 -19 0 -20 -7 -20 -120z"/>
<path d="M4542 317 c-19 -20 -22 -35 -22 -98 0 -84 19 -119 65 -119 30 0 65
32 65 60 0 27 -36 27 -43 -1 -4 -13 -12 -20 -24 -17 -15 3 -18 14 -18 78 0 64
3 75 18 78 12 3 20 -4 24 -17 7 -28 43 -28 43 -1 0 27 -35 60 -63 60 -13 0
-33 -10 -45 -23z"/>
<path d="M4687 253 c-9 -49 -19 -103 -23 -120 -6 -29 -4 -33 15 -33 11 0 21 5
21 10 0 6 11 10 25 10 14 0 25 -4 25 -10 0 -5 9 -10 20 -10 24 0 24 1 5 109
-24 135 -23 131 -49 131 -22 0 -25 -7 -39 -87z m52 -65 c1 -20 -4 -28 -15 -28
-14 0 -15 7 -10 38 3 20 6 44 7 52 2 22 17 -31 18 -62z"/>
</g>
</svg>
