<?xml version="1.0" standalone="no"?>
<!DOCTYPE svg PUBLIC "-//W3C//DTD SVG 20010904//EN"
 "http://www.w3.org/TR/2001/REC-SVG-20010904/DTD/svg10.dtd">
<svg version="1.0" xmlns="http://www.w3.org/2000/svg"
 width="422.000000pt" height="361.000000pt" viewBox="0 0 422.000000 361.000000"
 preserveAspectRatio="xMidYMid meet">

<g transform="translate(0.000000,361.000000) scale(0.100000,-0.100000)"
fill="#763626" stroke="none">
<path d="M899 3392 c-71 -46 -129 -144 -129 -222 0 -50 14 -52 76 -9 67 46
134 158 134 224 0 44 -19 46 -81 7z"/>
<path d="M3386 3404 c-19 -50 57 -187 137 -245 57 -41 77 -39 77 9 0 77 -75
198 -144 231 -51 25 -62 26 -70 5z"/>
<path d="M543 3333 c-29 -119 43 -321 111 -311 19 3 21 10 24 81 2 49 -3 98
-12 131 -16 53 -77 136 -101 136 -7 0 -17 -17 -22 -37z"/>
<path d="M3758 3333 c-40 -44 -58 -87 -68 -170 -13 -101 -6 -143 25 -143 59 0
122 137 112 244 -10 104 -23 117 -69 69z"/>
<path d="M2090 3269 c-247 -147 -567 -281 -870 -365 -80 -22 -119 -27 -252
-30 -178 -3 -217 -14 -277 -77 -38 -40 -36 -63 6 -73 49 -10 53 -13 53 -33 0
-14 -18 -32 -54 -55 -76 -48 -137 -134 -98 -137 39 -3 106 3 130 12 64 24 42
-48 -23 -75 -71 -30 -176 -140 -160 -166 12 -19 77 -10 145 20 86 38 92 38 88
-2 -3 -29 -10 -36 -65 -63 -89 -43 -148 -95 -169 -150 -13 -34 -14 -49 -6 -57
26 -26 179 51 223 113 11 16 24 29 28 29 5 0 19 -48 31 -107 140 -666 475
-1256 965 -1697 164 -149 362 -296 397 -296 52 0 318 210 513 405 441 444 737
1007 865 1646 l11 57 55 -53 c56 -53 146 -105 183 -105 37 0 21 61 -35 136
-21 27 -117 84 -141 84 -21 0 -53 43 -53 70 0 17 1 30 3 30 1 0 38 -16 82 -35
90 -39 155 -46 155 -17 0 23 -52 94 -87 118 -15 11 -50 30 -78 44 -40 20 -50
30 -50 50 0 27 -2 27 85 12 56 -9 90 -5 90 12 0 26 -59 94 -109 124 -50 31
-69 68 -38 76 50 13 71 23 74 33 7 19 -55 80 -105 104 -42 21 -62 23 -197 24
-129 1 -164 5 -250 28 -287 75 -599 205 -861 358 -55 33 -105 59 -110 59 -5 0
-47 -23 -94 -51z m415 -189 c264 -129 522 -213 853 -275 100 -19 185 -35 189
-35 10 0 -5 -322 -21 -460 -69 -581 -274 -1074 -642 -1547 -184 -236 -650
-653 -712 -636 -53 13 -301 224 -483 410 -478 489 -760 1074 -843 1748 -14
114 -38 476 -32 482 2 2 68 14 147 28 422 73 791 207 1138 412 l84 50 91 -54
c50 -30 154 -85 231 -123z"/>
<path d="M2095 2379 c-251 -42 -487 -276 -436 -432 15 -45 63 -87 101 -87 l28
0 4 88 c8 142 55 233 153 293 41 26 57 24 50 -3 -2 -13 -30 -140 -61 -283 -68
-317 -157 -697 -184 -786 -12 -40 -32 -80 -50 -99 -28 -30 -34 -32 -82 -28
-66 7 -98 39 -98 99 0 32 7 47 31 71 29 30 33 31 94 25 37 -4 67 -2 70 3 9 15
-6 79 -22 95 -20 21 -173 20 -212 0 -39 -20 -70 -88 -77 -166 -7 -84 21 -143
84 -178 106 -58 303 -27 401 62 66 62 118 239 250 853 72 337 92 449 84 472
-6 13 -51 14 -128 1z"/>
<path d="M2580 2353 c-73 -36 -197 -160 -242 -243 -51 -93 -87 -200 -104 -310
-27 -181 -15 -333 33 -430 34 -66 92 -102 195 -121 172 -31 391 65 475 208 13
23 23 47 21 53 -2 6 -39 -12 -83 -40 -206 -130 -372 -101 -405 71 -22 116 31
425 98 571 41 87 85 144 139 178 120 76 195 1 144 -141 -13 -33 -20 -67 -17
-75 8 -21 88 -18 115 4 25 20 44 106 34 154 -20 101 -85 140 -242 145 -98 3
-110 1 -161 -24z"/>
<path d="M414 3088 c-10 -48 -7 -127 8 -162 19 -48 65 -107 104 -135 43 -30
54 -20 54 50 0 71 -26 143 -78 211 -56 74 -77 83 -88 36z"/>
<path d="M3888 3083 c-72 -74 -127 -239 -99 -292 10 -18 15 -19 33 -10 63 34
123 117 134 187 9 55 -4 152 -20 152 -6 0 -28 -17 -48 -37z"/>
<path d="M3370 3084 c-54 -10 -90 -26 -90 -40 0 -40 146 -94 256 -94 84 0 99
18 53 61 -57 54 -151 85 -219 73z"/>
<path d="M843 3060 c-41 -21 -93 -72 -93 -91 0 -15 50 -22 124 -16 87 7 156
30 187 63 21 23 22 26 6 41 -12 12 -39 18 -99 20 -70 4 -90 1 -125 -17z"/>
<path d="M3976 2799 c-75 -78 -99 -124 -104 -206 -4 -59 -3 -63 17 -63 68 0
159 137 168 253 8 91 -6 93 -81 16z"/>
<path d="M317 2843 c-14 -14 -6 -105 14 -159 27 -72 106 -157 140 -152 22 3
24 7 23 63 -1 73 -24 121 -95 199 -48 53 -67 64 -82 49z"/>
<path d="M4075 2556 c-78 -52 -144 -145 -166 -229 -16 -64 -4 -75 50 -47 104
53 175 162 169 260 l-3 50 -50 -34z"/>
<path d="M238 2558 c-7 -20 12 -110 32 -148 31 -62 140 -150 185 -150 12 0 14
7 9 28 -29 131 -59 184 -143 248 -45 35 -76 43 -83 22z"/>
<path d="M190 2270 c0 -39 42 -129 80 -173 57 -65 168 -113 171 -74 4 43 -37
131 -87 183 -66 70 -164 108 -164 64z"/>
<path d="M4084 2260 c-65 -37 -118 -99 -144 -167 -29 -79 -28 -87 17 -78 104
19 213 145 213 246 0 38 -20 37 -86 -1z"/>
<path d="M702 1994 c-75 -37 -152 -138 -152 -199 0 -37 35 -33 107 14 70 45
123 115 130 172 5 34 3 39 -14 39 -10 0 -43 -12 -71 -26z"/>
<path d="M3570 2000 c0 -58 75 -155 154 -200 68 -40 86 -39 86 3 0 61 -101
189 -159 200 -16 3 -40 9 -55 13 -22 5 -26 3 -26 -16z"/>
<path d="M190 1995 c-23 -28 42 -143 107 -187 42 -30 127 -68 149 -68 34 0 1
89 -58 155 -65 75 -174 129 -198 100z"/>
<path d="M4072 1974 c-64 -32 -135 -109 -156 -170 -19 -56 -14 -67 27 -58 106
22 237 148 237 226 0 24 -4 28 -28 28 -15 0 -51 -12 -80 -26z"/>
<path d="M755 1783 c-87 -46 -144 -120 -160 -206 -6 -30 -4 -38 10 -43 57 -22
189 124 211 234 5 27 4 32 -12 32 -11 -1 -32 -8 -49 -17z"/>
<path d="M3550 1772 c0 -83 138 -242 210 -242 25 0 25 15 0 86 -27 78 -58 115
-128 152 -73 39 -82 40 -82 4z"/>
<path d="M210 1697 c0 -32 51 -109 92 -140 51 -40 118 -67 166 -67 55 0 56 20
2 91 -59 79 -159 139 -231 139 -24 0 -29 -4 -29 -23z"/>
<path d="M4069 1711 c-60 -19 -147 -89 -191 -155 -41 -61 -38 -70 23 -63 102
12 197 75 239 158 29 56 26 69 -12 68 -18 0 -45 -4 -59 -8z"/>
<path d="M782 1550 c-77 -55 -129 -153 -120 -226 5 -42 28 -40 81 6 51 46 103
139 113 208 6 37 4 42 -13 42 -11 0 -39 -14 -61 -30z"/>
<path d="M3500 1572 c0 -23 33 -115 55 -155 28 -50 120 -141 134 -132 17 10
22 62 12 102 -16 59 -69 132 -120 164 -44 28 -81 38 -81 21z"/>
<path d="M4017 1439 c-89 -21 -206 -104 -225 -159 -10 -27 -9 -30 14 -36 31
-8 107 3 156 23 58 23 159 147 143 173 -7 12 -36 11 -88 -1z"/>
<path d="M260 1420 c0 -15 22 -45 63 -86 64 -64 129 -94 201 -94 70 0 71 33 4
101 -52 53 -132 89 -209 96 -57 6 -59 5 -59 -17z"/>
<path d="M874 1351 c-82 -50 -136 -160 -120 -246 14 -71 75 -32 128 82 32 67
49 165 31 176 -5 3 -23 -2 -39 -12z"/>
<path d="M3442 1315 c8 -93 102 -255 149 -255 22 0 30 55 18 118 -13 71 -52
131 -108 169 -55 37 -64 32 -59 -32z"/>
<path d="M3353 1093 c6 -101 28 -161 77 -211 39 -39 52 -37 62 9 18 80 -20
197 -83 254 -58 52 -63 48 -56 -52z"/>
<path d="M345 1160 c-9 -14 71 -97 122 -127 26 -15 68 -28 106 -33 61 -7 127
3 127 19 0 29 -121 117 -188 137 -52 16 -158 19 -167 4z"/>
<path d="M962 1150 c-65 -40 -110 -190 -82 -275 l12 -37 34 33 c59 58 104 189
89 266 -7 39 -9 39 -53 13z"/>
<path d="M3867 1159 c-49 -12 -71 -23 -134 -71 -88 -67 -81 -88 31 -88 58 0
77 5 127 31 61 33 129 98 129 124 0 12 -13 15 -57 14 -32 -1 -75 -5 -96 -10z"/>
<path d="M1061 938 c-60 -81 -77 -187 -40 -248 l21 -34 33 36 c39 42 65 120
65 192 0 107 -27 125 -79 54z"/>
<path d="M3230 939 c-22 -79 9 -195 66 -250 40 -39 47 -34 63 41 17 80 -6 157
-67 223 -35 37 -49 34 -62 -14z"/>
<path d="M481 911 c-23 -15 0 -54 53 -90 90 -62 158 -73 254 -43 l53 17 -48
37 c-74 56 -137 80 -223 85 -41 2 -81 0 -89 -6z"/>
<path d="M3731 910 c-39 -6 -71 -20 -122 -55 -38 -26 -71 -51 -74 -55 -7 -11
93 -40 134 -40 49 0 136 38 185 81 25 22 46 47 46 54 0 25 -63 30 -169 15z"/>
<path d="M3111 806 c-7 -8 -16 -43 -21 -77 -15 -105 27 -267 65 -253 25 10 50
86 50 154 -1 50 -7 77 -27 116 -34 64 -51 80 -67 60z"/>
<path d="M1216 791 c-28 -31 -56 -118 -56 -174 0 -50 27 -128 48 -141 31 -19
72 101 72 214 0 96 -28 141 -64 101z"/>
<path d="M660 677 c-81 -21 -49 -70 78 -118 94 -35 209 -12 220 45 4 20 -74
57 -156 75 -64 13 -83 13 -142 -2z"/>
<path d="M3550 676 c-55 -12 -134 -48 -144 -64 -7 -12 32 -48 67 -61 43 -16
96 -13 163 9 54 19 124 69 124 90 0 26 -136 43 -210 26z"/>
<path d="M2957 649 c-28 -44 -39 -104 -36 -195 3 -67 9 -97 23 -119 l19 -29
23 27 c52 61 58 201 12 291 l-25 50 -16 -25z"/>
<path d="M1377 632 c-22 -24 -47 -97 -47 -136 0 -45 18 -105 47 -155 l26 -44
21 39 c29 53 31 231 3 282 -20 37 -28 39 -50 14z"/>
<path d="M828 454 c-21 -9 -38 -22 -38 -29 0 -35 111 -85 190 -85 59 0 155 34
165 58 13 35 -55 60 -190 67 -70 4 -98 2 -127 -11z"/>
<path d="M3316 460 c-49 -13 -96 -41 -96 -57 0 -41 138 -74 233 -54 173 35
162 109 -17 117 -44 2 -98 -1 -120 -6z"/>
<path d="M1105 276 c-56 -14 -135 -52 -135 -65 0 -5 24 -19 53 -31 69 -31 182
-32 247 -3 82 36 91 74 23 92 -69 17 -137 20 -188 7z"/>
<path d="M3058 264 c-21 -9 -38 -22 -38 -29 0 -16 64 -58 114 -75 61 -20 165
-8 220 24 25 15 46 29 46 32 0 3 -26 17 -57 32 -74 33 -225 42 -285 16z"/>
</g>
</svg>
